<?xml version="1.0" encoding="UTF-8"?>
<svg version="1.1" xmlns="http://www.w3.org/2000/svg" width="81" height="82">
<path d="M0 0 C0.9237442 0.00141495 1.8474884 0.0028299 2.79922485 0.00428772 C5.73337112 0.00986016 8.66743951 0.02240756 11.6015625 0.03515625 C13.59765514 0.04017481 15.59374899 0.0447371 17.58984375 0.04882812 C22.46877975 0.05982056 27.34765795 0.07706615 32.2265625 0.09765625 C32.8865625 1.74765625 33.5465625 3.39765625 34.2265625 5.09765625 C32.5765625 5.09765625 30.9265625 5.09765625 29.2265625 5.09765625 C29.17685303 5.74855225 29.12714355 6.39944824 29.07592773 7.07006836 C28.3807482 15.80256428 27.4978858 24.51070347 26.55200195 33.21899414 C26.37501345 34.8621771 26.20157626 36.50574603 26.03149414 38.1496582 C25.78282838 40.55121471 25.52349316 42.95140392 25.26171875 45.3515625 C25.18768326 46.08589005 25.11364777 46.82021759 25.03736877 47.57679749 C24.63719848 51.13372371 24.25115526 53.06076712 22.2265625 56.09765625 C17.21807705 57.68913761 11.5969211 57.40252812 6.37695312 57.52734375 C1.90972253 57.71626628 -0.34960999 58.30871066 -3.7734375 61.09765625 C-6.0703125 61.171875 -6.0703125 61.171875 -8.5234375 60.78515625 C-11.78480943 60.32885237 -14.79713053 60.06664074 -18.0859375 60.22265625 C-21.9843438 60.09050688 -23.69575696 59.40591666 -26.7734375 57.09765625 C-25.1484375 50.34765625 -25.1484375 50.34765625 -21.7734375 48.09765625 C-18.5859375 47.97265625 -18.5859375 47.97265625 -15.7734375 48.09765625 C-15.4434375 46.44765625 -15.1134375 44.79765625 -14.7734375 43.09765625 C-12.4634375 43.09765625 -10.1534375 43.09765625 -7.7734375 43.09765625 C-8.3241634 38.81087317 -8.87553748 34.52417408 -9.42749023 30.23754883 C-9.61483925 28.78184211 -9.80201677 27.32611332 -9.98901367 25.87036133 C-10.25914214 23.76768132 -10.52990466 21.66508374 -10.80078125 19.5625 C-10.96312256 18.30042725 -11.12546387 17.03835449 -11.29272461 15.73803711 C-11.76163023 12.18707132 -12.26019546 8.64242132 -12.7734375 5.09765625 C-14.0934375 4.76765625 -15.4134375 4.43765625 -16.7734375 4.09765625 C-16.4434375 3.10765625 -16.1134375 2.11765625 -15.7734375 1.09765625 C-10.4761582 0.00258206 -5.3801258 -0.03128016 0 0 Z " fill="#C9AB86" transform="translate(40.7734375,13.90234375)"/>
<path d="M0 0 C2.375 -0.125 2.375 -0.125 5 0 C7 2 7 2 7.1953125 4.1640625 C7.17210937 4.97617187 7.14890625 5.78828125 7.125 6.625 C7.10695312 7.44226563 7.08890625 8.25953125 7.0703125 9.1015625 C7.04710937 9.72804688 7.02390625 10.35453125 7 11 C6.34 11 5.68 11 5 11 C4.855625 11.7425 4.71125 12.485 4.5625 13.25 C4.09812508 15.52027739 3.58136431 17.75759479 3 20 C1.68 20 0.36 20 -1 20 C-1.33 19.34 -1.66 18.68 -2 18 C-2.33 19.98 -2.66 21.96 -3 24 C-4.98 23.01 -6.96 22.02 -9 21 C-9.04898438 21.71027344 -9.09796875 22.42054687 -9.1484375 23.15234375 C-9.22320312 24.07144531 -9.29796875 24.99054687 -9.375 25.9375 C-9.44460937 26.85402344 -9.51421875 27.77054688 -9.5859375 28.71484375 C-9.72257812 29.46894531 -9.85921875 30.22304688 -10 31 C-10.66 31.33 -11.32 31.66 -12 32 C-12.226875 31.360625 -12.45375 30.72125 -12.6875 30.0625 C-13.85250896 27.72806339 -13.85250896 27.72806339 -16.625 27.25 C-17.40875 27.1675 -18.1925 27.085 -19 27 C-18.67 26.01 -18.34 25.02 -18 24 C-15.525 24.99 -15.525 24.99 -13 26 C-13.66 22.37 -14.32 18.74 -15 15 C-16.32 14.67 -17.64 14.34 -19 14 C-19.061875 14.721875 -19.12375 15.44375 -19.1875 16.1875 C-20.25992966 19.8997565 -22.09757913 21.51221068 -25 24 C-25.99 24.33 -26.98 24.66 -28 25 C-28 22.03 -28 19.06 -28 16 C-28.66 16 -29.32 16 -30 16 C-30.33 11.38 -30.66 6.76 -31 2 C-20.77 2 -10.54 2 0 2 C0 1.34 0 0.68 0 0 Z " fill="#946025" transform="translate(61,17)"/>
<path d="M0 0 C2.475 0.495 2.475 0.495 5 1 C5.66 4.96 6.32 8.92 7 13 C5.02 12.34 3.04 11.68 1 11 C0.67 11.66 0.34 12.32 0 13 C0.78375 12.95875 1.5675 12.9175 2.375 12.875 C5 13 5 13 7 15 C7.26991906 17.68839385 7.08737357 20.29141936 7 23 C6.01 23 5.02 23 4 23 C4 21.68 4 20.36 4 19 C2.02 19 0.04 19 -2 19 C-2 20.32 -2 21.64 -2 23 C-2.99 23 -3.98 23 -5 23 C-5 23.66 -5 24.32 -5 25 C-1.04 25 2.92 25 7 25 C7.09765625 33.49609375 7.09765625 33.49609375 7 36 C6 37 6 37 3.625 37.3125 C1 37 1 37 -0.75 35.1875 C-2 33 -2 33 -3 30 C-7.29 29.67 -11.58 29.34 -16 29 C-16 30.32 -16 31.64 -16 33 C-15.34 33.33 -14.68 33.66 -14 34 C-16.0625 35.625 -16.0625 35.625 -19 37 C-22.8125 36.1875 -22.8125 36.1875 -26 35 C-26 36.65 -26 38.3 -26 40 C-25.01 40.33 -24.02 40.66 -23 41 C-23.99 41.495 -23.99 41.495 -25 42 C-25.99 41.01 -26.98 40.02 -28 39 C-26.375 33.25 -26.375 33.25 -23 31 C-19.8125 30.875 -19.8125 30.875 -17 31 C-16.67 29.35 -16.34 27.7 -16 26 C-13.69 26 -11.38 26 -9 26 C-9.144375 24.9378125 -9.28875 23.875625 -9.4375 22.78125 C-9.62526946 21.3542021 -9.81275419 19.92711671 -10 18.5 C-10.09539063 17.80390625 -10.19078125 17.1078125 -10.2890625 16.390625 C-10.9161622 11.55299871 -11.08789528 6.87818804 -11 2 C-10.34 2 -9.68 2 -9 2 C-9 4.97 -9 7.94 -9 11 C-8.236875 10.21625 -7.47375 9.4325 -6.6875 8.625 C-4 6 -4 6 -1 4 C-0.27617533 1.94074861 -0.27617533 1.94074861 0 0 Z " fill="#DAD2CA" transform="translate(42,31)"/>
<path d="M0 0 C0.66 0 1.32 0 2 0 C2.23609043 6.92531928 1.95037442 13.69012245 1.125 20.5625 C1.04652832 21.25279297 0.96805664 21.94308594 0.88720703 22.65429688 C0.43981873 26.12692317 -0.02109389 28.03164083 -2 31 C-3.9453125 31.29296875 -3.9453125 31.29296875 -6.125 31.1875 C-7.40375 31.125625 -8.6825 31.06375 -10 31 C-10 30.34 -10 29.68 -10 29 C-11.32 29 -12.64 29 -14 29 C-14.02692484 26.70839681 -14.04636124 24.41670454 -14.0625 22.125 C-14.07410156 20.84882812 -14.08570313 19.57265625 -14.09765625 18.2578125 C-14 15 -14 15 -13 13 C-12.01 13 -11.02 13 -10 13 C-10 14.32 -10 15.64 -10 17 C-8.02 17.33 -6.04 17.66 -4 18 C-4.66 17.34 -5.32 16.68 -6 16 C-6.33 15.01 -6.66 14.02 -7 13 C-7.66 13 -8.32 13 -9 13 C-9 12.01 -9 11.02 -9 10 C-10.32 9.34 -11.64 8.68 -13 8 C-13 7.01 -13 6.02 -13 5 C-11.35 5 -9.7 5 -8 5 C-7.67 6.32 -7.34 7.64 -7 9 C-6.34 7.35 -5.68 5.7 -5 4 C-4.01 4 -3.02 4 -2 4 C-1.34 2.68 -0.68 1.36 0 0 Z " fill="#E3D6CA" transform="translate(65,39)"/>
<path d="M0 0 C2.97 0 5.94 0 9 0 C9 1.32 9 2.64 9 4 C7.02 4.66 5.04 5.32 3 6 C6.31114834 7.12880057 9.58978257 8.21302675 13 9 C13.33 10.32 13.66 11.64 14 13 C10.62258925 15.25160716 10.12070826 15.1630514 6.3125 14.625 C2.99922868 14.19873118 -0.10123909 13.97672174 -3.4375 14.125 C-7 14 -7 14 -9 12.8125 C-10.30894168 10.44004321 -10.21620175 8.6664882 -10 6 C-8.906875 6.226875 -7.81375 6.45375 -6.6875 6.6875 C-3.14848264 7.35429134 -3.14848264 7.35429134 -1.0625 5.8125 C0.33714633 3.77502919 0.33714633 3.77502919 0 0 Z " fill="#B54817" transform="translate(26,60)"/>
<path d="M0 0 C0.9237442 0.00141495 1.8474884 0.0028299 2.79922485 0.00428772 C5.73337112 0.00986016 8.66743951 0.02240756 11.6015625 0.03515625 C13.59765514 0.04017481 15.59374899 0.0447371 17.58984375 0.04882812 C22.46877975 0.05982056 27.34765795 0.07706615 32.2265625 0.09765625 C32.8865625 1.74765625 33.5465625 3.39765625 34.2265625 5.09765625 C32.5765625 5.09765625 30.9265625 5.09765625 29.2265625 5.09765625 C29.2265625 4.10765625 29.2265625 3.11765625 29.2265625 2.09765625 C21.3065625 2.42765625 13.3865625 2.75765625 5.2265625 3.09765625 C4.8965625 3.75765625 4.5665625 4.41765625 4.2265625 5.09765625 C-0.7234375 5.09765625 -5.6734375 5.09765625 -10.7734375 5.09765625 C-10.4434375 6.74765625 -10.1134375 8.39765625 -9.7734375 10.09765625 C-9.65664951 12.77443698 -9.7279869 15.41607082 -9.7734375 18.09765625 C-10.1034375 18.09765625 -10.4334375 18.09765625 -10.7734375 18.09765625 C-11.4334375 13.80765625 -12.0934375 9.51765625 -12.7734375 5.09765625 C-14.0934375 4.76765625 -15.4134375 4.43765625 -16.7734375 4.09765625 C-16.4434375 3.10765625 -16.1134375 2.11765625 -15.7734375 1.09765625 C-10.4761582 0.00258206 -5.3801258 -0.03128016 0 0 Z " fill="#CCB9A3" transform="translate(40.7734375,13.90234375)"/>
<path d="M0 0 C1.65 0.33 3.3 0.66 5 1 C5.66 4.96 6.32 8.92 7 13 C5.02 12.34 3.04 11.68 1 11 C0.67 11.66 0.34 12.32 0 13 C1.65 13 3.3 13 5 13 C4.01 13.33 3.02 13.66 2 14 C1.67 14.99 1.34 15.98 1 17 C1 16.01 1 15.02 1 14 C-0.46015291 14.28241641 -1.91809793 14.57626614 -3.375 14.875 C-4.59316406 15.11863281 -4.59316406 15.11863281 -5.8359375 15.3671875 C-8.18673923 15.86658932 -8.18673923 15.86658932 -10 18 C-10.33 12.72 -10.66 7.44 -11 2 C-10.34 2 -9.68 2 -9 2 C-9 4.97 -9 7.94 -9 11 C-7.8553125 9.824375 -7.8553125 9.824375 -6.6875 8.625 C-4 6 -4 6 -1 4 C-0.27617533 1.94074861 -0.27617533 1.94074861 0 0 Z " fill="#CFB28E" transform="translate(42,31)"/>
<path d="M0 0 C4.62 0 9.24 0 14 0 C14.33 1.32 14.66 2.64 15 4 C13.68 4 12.36 4 11 4 C10.87882812 5.21558594 10.75765625 6.43117188 10.6328125 7.68359375 C10.46402922 9.26828117 10.29473184 10.8529139 10.125 12.4375 C10.00705078 13.64116211 10.00705078 13.64116211 9.88671875 14.86914062 C9.66154237 16.92170994 9.33777413 18.96293009 9 21 C8.34 21.33 7.68 21.66 7 22 C6.773125 21.360625 6.54625 20.72125 6.3125 20.0625 C5.14749104 17.72806339 5.14749104 17.72806339 2.375 17.25 C1.59125 17.1675 0.8075 17.085 0 17 C0.495 15.515 0.495 15.515 1 14 C3.475 14.99 3.475 14.99 6 16 C5.34 12.37 4.68 8.74 4 5 C2.68 4.67 1.36 4.34 0 4 C0 2.68 0 1.36 0 0 Z " fill="#A66E23" transform="translate(42,27)"/>
<path d="M0 0 C2.3125 0.125 2.3125 0.125 5 1 C6.8125 4.0625 6.8125 4.0625 8 7 C9.2375 6.979375 10.475 6.95875 11.75 6.9375 C14.6640825 6.93233319 17.20953327 7.06984442 20 8 C20 8.66 20 9.32 20 10 C20.99 10.33 21.98 10.66 23 11 C13.1 11.495 13.1 11.495 3 12 C3.33 11.01 3.66 10.02 4 9 C3.34 9 2.68 9 2 9 C1.67 9.66 1.34 10.32 1 11 C0.34 10.01 -0.32 9.02 -1 8 C-4.06556598 7.26656572 -4.06556598 7.26656572 -7 7 C-6.34 6.01 -5.68 5.02 -5 4 C-2.375 3.8125 -2.375 3.8125 0 4 C0 2.68 0 1.36 0 0 Z " fill="#9E8A7B" transform="translate(35,60)"/>
<path d="M0 0 C1.98 0 3.96 0 6 0 C6.33 1.32 6.66 2.64 7 4 C12.28 4 17.56 4 23 4 C23.33 3.34 23.66 2.68 24 2 C24.66 2.33 25.32 2.66 26 3 C26 3.66 26 4.32 26 5 C20.06 5 14.12 5 8 5 C8 6.98 8 8.96 8 11 C5.69 11.33 3.38 11.66 1 12 C1 10.35 1 8.7 1 7 C0.34 7 -0.32 7 -1 7 C-1 6.01 -1 5.02 -1 4 C-0.34 4 0.32 4 1 4 C0.67 2.68 0.34 1.36 0 0 Z " fill="#945D13" transform="translate(34,22)"/>
<path d="M0 0 C1.32 0.33 2.64 0.66 4 1 C4.33 2.98 4.66 4.96 5 7 C4.34 7 3.68 7 3 7 C3 7.99 3 8.98 3 10 C3.66 10 4.32 10 5 10 C5 11.65 5 13.3 5 15 C8.465 14.505 8.465 14.505 12 14 C10.75282088 17.74153737 8.90112219 19.37517516 6 22 C5.01 22.33 4.02 22.66 3 23 C3 20.03 3 17.06 3 14 C2.34 14 1.68 14 1 14 C0.67 9.38 0.34 4.76 0 0 Z " fill="#AF7317" transform="translate(30,19)"/>
<path d="M0 0 C2.375 -0.125 2.375 -0.125 5 0 C7 2 7 2 7.1953125 4.1640625 C7.17210938 4.97617187 7.14890625 5.78828125 7.125 6.625 C7.10695313 7.44226563 7.08890625 8.25953125 7.0703125 9.1015625 C7.03550781 10.04128906 7.03550781 10.04128906 7 11 C6.34 11 5.68 11 5 11 C4.7834375 12.11375 4.7834375 12.11375 4.5625 13.25 C4.09812508 15.52027739 3.58136431 17.75759479 3 20 C1.68 20 0.36 20 -1 20 C-1.8125 17.8125 -1.8125 17.8125 -2 15 C0.4375 12.1875 0.4375 12.1875 3 10 C2.7834375 9.44570313 2.566875 8.89140625 2.34375 8.3203125 C1.92609375 7.23363281 1.92609375 7.23363281 1.5 6.125 C1.2215625 5.40570312 0.943125 4.68640625 0.65625 3.9453125 C0 2 0 2 0 0 Z " fill="#AC763E" transform="translate(61,17)"/>
<path d="M0 0 C2.64 0 5.28 0 8 0 C8.33 0.99 8.66 1.98 9 3 C6.03 3 3.06 3 0 3 C0 4.32 0 5.64 0 7 C0.66 7.33 1.32 7.66 2 8 C-0.0625 9.625 -0.0625 9.625 -3 11 C-6.8125 10.1875 -6.8125 10.1875 -10 9 C-10 10.65 -10 12.3 -10 14 C-9.01 14.33 -8.02 14.66 -7 15 C-7.99 15.495 -7.99 15.495 -9 16 C-9.99 15.01 -10.98 14.02 -12 13 C-10.375 7.25 -10.375 7.25 -7 5 C-3.8125 4.875 -3.8125 4.875 -1 5 C-0.67 3.35 -0.34 1.7 0 0 Z " fill="#F4C997" transform="translate(26,57)"/>
<path d="M0 0 C1 1 1 1 1.09765625 2.84765625 C1.06510417 4.8984375 1.03255208 6.94921875 1 9 C0.01 9 -0.98 9 -2 9 C-2 7.68 -2 6.36 -2 5 C-3.98 5 -5.96 5 -8 5 C-8 4.34 -8 3.68 -8 3 C-9.65 3 -11.3 3 -13 3 C-13.33 5.97 -13.66 8.94 -14 12 C-14.33 12 -14.66 12 -15 12 C-15 8.7 -15 5.4 -15 2 C-9.97510856 -0.06149392 -5.3654663 -0.4857159 0 0 Z " fill="#D7C6B1" transform="translate(48,45)"/>
<path d="M0 0 C1.65 0.33 3.3 0.66 5 1 C5.66 4.96 6.32 8.92 7 13 C5.35 12.67 3.7 12.34 2 12 C2 10.68 2 9.36 2 8 C-0.31 8.33 -2.62 8.66 -5 9 C-3.25 5.125 -3.25 5.125 -1 4 C-0.34786708 1.97536745 -0.34786708 1.97536745 0 0 Z " fill="#CEA86A" transform="translate(42,31)"/>
<path d="M0 0 C2.97 0 5.94 0 9 0 C9 1.32 9 2.64 9 4 C7.02 4.66 5.04 5.32 3 6 C6.31114834 7.12880057 9.58978257 8.21302675 13 9 C13.33 10.32 13.66 11.64 14 13 C13.01 13 12.02 13 11 13 C10.5875 12.54625 10.175 12.0925 9.75 11.625 C7.18661067 9.24470991 4.34176927 8.81967925 1 8 C0.17361624 5.10765685 0 3.11257569 0 0 Z " fill="#C85817" transform="translate(26,60)"/>
<path d="M0 0 C7.92 0 15.84 0 24 0 C24 1.65 24 3.3 24 5 C23.34 5 22.68 5 22 5 C21.34 4.01 20.68 3.02 20 2 C17.43717258 1.27034634 17.43717258 1.27034634 15 1 C15 1.66 15 2.32 15 3 C9.72 3 4.44 3 -1 3 C-0.67 2.01 -0.34 1.02 0 0 Z " fill="#BA987F" transform="translate(46,16)"/>
<path d="M0 0 C0.66 0 1.32 0 2 0 C1.75 2.3125 1.75 2.3125 1 5 C0.38125 5.433125 -0.2375 5.86625 -0.875 6.3125 C-4.06591507 8.84646197 -4.8077035 12.19729676 -6 16 C-6.33 15.01 -6.66 14.02 -7 13 C-7.66 13 -8.32 13 -9 13 C-9 12.01 -9 11.02 -9 10 C-10.32 9.34 -11.64 8.68 -13 8 C-13 7.01 -13 6.02 -13 5 C-11.35 5 -9.7 5 -8 5 C-7.67 6.32 -7.34 7.64 -7 9 C-6.34 7.35 -5.68 5.7 -5 4 C-4.01 4 -3.02 4 -2 4 C-1.34 2.68 -0.68 1.36 0 0 Z " fill="#D5C5B7" transform="translate(65,39)"/>
<path d="M0 0 C1.06992187 0.00644531 2.13984375 0.01289063 3.2421875 0.01953125 C4.35335937 0.03628906 5.46453125 0.05304687 6.609375 0.0703125 C7.73601563 0.07933594 8.86265625 0.08835937 10.0234375 0.09765625 C12.80229865 0.12120592 15.5807289 0.1540957 18.359375 0.1953125 C19.019375 1.8453125 19.679375 3.4953125 20.359375 5.1953125 C18.709375 5.1953125 17.059375 5.1953125 15.359375 5.1953125 C15.359375 4.2053125 15.359375 3.2153125 15.359375 2.1953125 C7.109375 2.1953125 -1.140625 2.1953125 -9.640625 2.1953125 C-5.67441702 0.21220851 -4.24920212 -0.04520428 0 0 Z " fill="#D2C7C4" transform="translate(54.640625,13.8046875)"/>
<path d="M0 0 C1.48014919 4.02054709 0.73462927 7.92739378 0.1875 12.0625 C0.10435547 12.78244141 0.02121094 13.50238281 -0.06445312 14.24414062 C-0.52121877 17.83491874 -0.96073942 19.94110913 -3 23 C-4.9453125 23.29296875 -4.9453125 23.29296875 -7.125 23.1875 C-8.40375 23.125625 -9.6825 23.06375 -11 23 C-11 22.34 -11 21.68 -11 21 C-12.32 21 -13.64 21 -15 21 C-14.505 19.515 -14.505 19.515 -14 18 C-14 18.66 -14 19.32 -14 20 C-10.37 20 -6.74 20 -3 20 C-2.86722656 18.80761719 -2.73445313 17.61523438 -2.59765625 16.38671875 C-2.41944017 14.82029322 -2.24104544 13.25388802 -2.0625 11.6875 C-1.97548828 10.90181641 -1.88847656 10.11613281 -1.79882812 9.30664062 C-1.71181641 8.54931641 -1.62480469 7.79199219 -1.53515625 7.01171875 C-1.41732788 5.96697388 -1.41732788 5.96697388 -1.29711914 4.90112305 C-1 3 -1 3 0 0 Z " fill="#D8C4B5" transform="translate(66,47)"/>
<path d="M0 0 C0.66 0 1.32 0 2 0 C1.39174965 4.34464536 0.73832608 8.67551867 0 13 C-1.98 12.01 -3.96 11.02 -6 10 C-5.67 7.69 -5.34 5.38 -5 3 C-3.68 3 -2.36 3 -1 3 C-0.67 2.01 -0.34 1.02 0 0 Z " fill="#885721" transform="translate(58,28)"/>
<path d="M0 0 C4.62 0 9.24 0 14 0 C13.34 1.32 12.68 2.64 12 4 C12 4.99 12 5.98 12 7 C10.68 7 9.36 7 8 7 C7.67 5.68 7.34 4.36 7 3 C4.69 3 2.38 3 0 3 C0 2.01 0 1.02 0 0 Z " fill="#91653D" transform="translate(33,19)"/>
<path d="M0 0 C1.98 0 3.96 0 6 0 C6 1.32 6 2.64 6 4 C6.99 4 7.98 4 9 4 C9 4.66 9 5.32 9 6 C5.04 6 1.08 6 -3 6 C-3 5.34 -3 4.68 -3 4 C-2.01 4 -1.02 4 0 4 C0 2.68 0 1.36 0 0 Z " fill="#A99D9A" transform="translate(40,50)"/>
<path d="M0 0 C1.32 0.33 2.64 0.66 4 1 C4.33 2.98 4.66 4.96 5 7 C4.34 7 3.68 7 3 7 C3 7.99 3 8.98 3 10 C3.66 10 4.32 10 5 10 C4.67 11.32 4.34 12.64 4 14 C3.01 14 2.02 14 1 14 C0.67 9.38 0.34 4.76 0 0 Z " fill="#A9762F" transform="translate(30,19)"/>
<path d="M0 0 C7.01048766 1.16841461 9.70605979 3.51329862 14 9 C13 10 13 10 10.625 10.3125 C8 10 8 10 6.25 8.1875 C5 6 5 6 4 3 C1.98491642 2.26676204 1.98491642 2.26676204 0 2 C0 1.34 0 0.68 0 0 Z " fill="#C8C2BC" transform="translate(35,58)"/>
<path d="M0 0 C2.1640625 -0.29296875 2.1640625 -0.29296875 4.625 -0.1875 C5.44226562 -0.16042969 6.25953125 -0.13335937 7.1015625 -0.10546875 C8.04128906 -0.05326172 8.04128906 -0.05326172 9 0 C9 1.65 9 3.3 9 5 C8.34 5 7.68 5 7 5 C6.67 5.66 6.34 6.32 6 7 C5.34 6.01 4.68 5.02 4 4 C0.93443402 3.26656572 0.93443402 3.26656572 -2 3 C-1.34 2.01 -0.68 1.02 0 0 Z " fill="#ECBB8A" transform="translate(30,64)"/>
<path d="M0 0 C0.66 0.66 1.32 1.32 2 2 C1.98251781 4.91952568 1.86055367 7.72297885 1.625 10.625 C1.56828125 11.42679688 1.5115625 12.22859375 1.453125 13.0546875 C1.31152018 15.03715498 1.15697741 17.01869051 1 19 C0.34 19 -0.32 19 -1 19 C-1.02683987 16.02077407 -1.04676037 13.04178705 -1.0625 10.0625 C-1.07087891 9.21236328 -1.07925781 8.36222656 -1.08789062 7.48632812 C-1.09111328 6.67744141 -1.09433594 5.86855469 -1.09765625 5.03515625 C-1.10289307 4.2862915 -1.10812988 3.53742676 -1.11352539 2.76586914 C-1 1 -1 1 0 0 Z " fill="#F0C64A" transform="translate(50,48)"/>
<path d="M0 0 C1.98 0 3.96 0 6 0 C6.33 1.32 6.66 2.64 7 4 C6.01 4.33 5.02 4.66 4 5 C3.26676204 7.01508358 3.26676204 7.01508358 3 9 C2.34 9 1.68 9 1 9 C1 8.34 1 7.68 1 7 C0.34 7 -0.32 7 -1 7 C-1 6.01 -1 5.02 -1 4 C-0.34 4 0.32 4 1 4 C0.67 2.68 0.34 1.36 0 0 Z " fill="#9B6622" transform="translate(34,22)"/>
<path d="M0 0 C1.98 0.66 3.96 1.32 6 2 C5.67 2.99 5.34 3.98 5 5 C6.32 5.33 7.64 5.66 9 6 C9.33 7.32 9.66 8.64 10 10 C7.03 9.505 7.03 9.505 4 9 C4 7.68 4 6.36 4 5 C3.01 5 2.02 5 1 5 C0.67 3.35 0.34 1.7 0 0 Z " fill="#BAA79B" transform="translate(51,47)"/>
<path d="M0 0 C0 0.66 0 1.32 0 2 C0.99 2.33 1.98 2.66 3 3 C-2.28 3 -7.56 3 -13 3 C-12.01 2.67 -11.02 2.34 -10 2 C-10 1.34 -10 0.68 -10 0 C-6.30581799 -1.231394 -3.7943739 -0.64432764 0 0 Z " fill="#966130" transform="translate(55,68)"/>
<path d="M0 0 C0.66 0 1.32 0 2 0 C1.34 5.61 0.68 11.22 0 17 C-1.32 16.34 -2.64 15.68 -4 15 C-3.33333333 12.33333333 -2.66666667 9.66666667 -2 7 C-1.34 7 -0.68 7 0 7 C0 4.69 0 2.38 0 0 Z " fill="#C6996B" transform="translate(68,21)"/>
<path d="M0 0 C3.63 0 7.26 0 11 0 C11 0.99 11 1.98 11 3 C6.71 3 2.42 3 -2 3 C-1.34 2.67 -0.68 2.34 0 2 C0 1.34 0 0.68 0 0 Z " fill="#BC9F94" transform="translate(33,16)"/>
<path d="M0 0 C2.31 0.66 4.62 1.32 7 2 C6.67 3.32 6.34 4.64 6 6 C5.34 6 4.68 6 4 6 C3.67 6.66 3.34 7.32 3 8 C1.5 6.8125 1.5 6.8125 0 5 C-0.1875 2.3125 -0.1875 2.3125 0 0 Z " fill="#D57B34" transform="translate(16,66)"/>
<path d="M0 0 C1.65 0.33 3.3 0.66 5 1 C5 2.65 5 4.3 5 6 C0.545 6.495 0.545 6.495 -4 7 C-3.01 6.01 -2.02 5.02 -1 4 C-0.28552357 1.89667109 -0.28552357 1.89667109 0 0 Z " fill="#C6964A" transform="translate(42,31)"/>
<path d="M0 0 C0.99 0.33 1.98 0.66 3 1 C2.01 1.495 2.01 1.495 1 2 C0.30772968 4.80980673 0.30772968 4.80980673 -0.125 8.0625 C-0.29257812 9.16722656 -0.46015625 10.27195312 -0.6328125 11.41015625 C-0.75398438 12.26480469 -0.87515625 13.11945312 -1 14 C-3.52017426 11.47982574 -3.29730377 10.48500151 -3.3125 7 C-3.32925781 6.113125 -3.34601562 5.22625 -3.36328125 4.3125 C-3.24339844 3.549375 -3.12351563 2.78625 -3 2 C-2.01 1.34 -1.02 0.68 0 0 Z " fill="#B87A1C" transform="translate(50,28)"/>
<path d="M0 0 C1.0326802 2.78823655 1.04509293 3.8677274 0.0625 6.75 C-0.288125 7.4925 -0.63875 8.235 -1 9 C-2.32 9 -3.64 9 -5 9 C-5.33 7.35 -5.66 5.7 -6 4 C-4.35 3.67 -2.7 3.34 -1 3 C-0.67 2.01 -0.34 1.02 0 0 Z " fill="#BB8035" transform="translate(65,28)"/>
<path d="M0 0 C0.99 0 1.98 0 3 0 C3.0825 0.61875 3.165 1.2375 3.25 1.875 C3.91214206 4.53489979 3.91214206 4.53489979 8 6 C5.03 6 2.06 6 -1 6 C-1.042721 4.33388095 -1.04063832 2.66617115 -1 1 C-0.67 0.67 -0.34 0.34 0 0 Z " fill="#A2290A" transform="translate(24,66)"/>
<path d="M0 0 C4.455 0.99 4.455 0.99 9 2 C8.67 2.99 8.34 3.98 8 5 C5.69 5 3.38 5 1 5 C0.67 3.35 0.34 1.7 0 0 Z " fill="#955F17" transform="translate(49,21)"/>
<path d="M0 0 C0.33 1.32 0.66 2.64 1 4 C0.34 4 -0.32 4 -1 4 C-1.103125 4.61875 -1.20625 5.2375 -1.3125 5.875 C-2 8 -2 8 -5 10 C-4.50769231 3.47692308 -4.50769231 3.47692308 -1.9375 1.0625 C-0.9784375 0.5365625 -0.9784375 0.5365625 0 0 Z " fill="#D9AF79" transform="translate(66,35)"/>
<path d="M0 0 C2.0625 0.4375 2.0625 0.4375 4 1 C4.33 2.65 4.66 4.3 5 6 C3.35 6 1.7 6 0 6 C-0.38218767 4.34385343 -0.71395102 2.67542976 -1 1 C-0.67 0.67 -0.34 0.34 0 0 Z " fill="#9B6A29" transform="translate(45,20)"/>
<path d="M0 0 C1.28132813 0.19464844 2.56265625 0.38929687 3.8828125 0.58984375 C4.87023438 0.74582031 5.85765625 0.90179688 6.875 1.0625 C3.09872823 3.58001452 2.19903987 2.89404613 -2.125 2.0625 C-4.45802989 2.02487049 -6.79213319 2.01584266 -9.125 2.0625 C-9.125 1.4025 -9.125 0.7425 -9.125 0.0625 C-6.01752306 -1.49123847 -3.38273473 -0.52278628 0 0 Z " fill="#C05612" transform="translate(29.125,71.9375)"/>
<path d="M0 0 C0.66 0 1.32 0 2 0 C1.50527325 4.57622244 1.50527325 4.57622244 -0.9375 6.625 C-1.618125 7.07875 -2.29875 7.5325 -3 8 C-3.66 8.99 -4.32 9.98 -5 11 C-5.33 9.02 -5.66 7.04 -6 5 C-5.38125 4.9175 -4.7625 4.835 -4.125 4.75 C-1.81562433 4.18741541 -1.81562433 4.18741541 -0.75 1.9375 C-0.5025 1.298125 -0.255 0.65875 0 0 Z " fill="#DCC0A3" transform="translate(65,39)"/>
<path d="M0 0 C0.103125 0.639375 0.20625 1.27875 0.3125 1.9375 C0.539375 2.618125 0.76625 3.29875 1 4 C1.99 4.33 2.98 4.66 4 5 C3.34 6.65 2.68 8.3 2 10 C0.68 8.68 -0.64 7.36 -2 6 C-1.34 4.02 -0.68 2.04 0 0 Z " fill="#C49A68" transform="translate(59,33)"/>
<path d="M0 0 C2.31 0 4.62 0 7 0 C7.33 0.66 7.66 1.32 8 2 C6.25 3.5625 6.25 3.5625 4 5 C1.75 4.6875 1.75 4.6875 0 4 C0 2.68 0 1.36 0 0 Z " fill="#A17132" transform="translate(42,27)"/>
<path d="M0 0 C1.98 0 3.96 0 6 0 C6.66 1.65 7.32 3.3 8 5 C6.35 5 4.7 5 3 5 C3 4.01 3 3.02 3 2 C2.01 2 1.02 2 0 2 C0 1.34 0 0.68 0 0 Z " fill="#D8D1CB" transform="translate(67,14)"/>
<path d="M0 0 C2.1875 0.3125 2.1875 0.3125 4 1 C4 1.66 4 2.32 4 3 C4.66 3 5.32 3 6 3 C6.33 2.34 6.66 1.68 7 1 C7.66 1.66 8.32 2.32 9 3 C6.37684968 4.31157516 4.76966564 3.89649988 1.875 3.5625 C0.96492188 3.46066406 0.05484375 3.35882813 -0.8828125 3.25390625 C-1.58148437 3.17011719 -2.28015625 3.08632812 -3 3 C-1.63671875 1.48046875 -1.63671875 1.48046875 0 0 Z " fill="#F3C49C" transform="translate(19,62)"/>
<path d="M0 0 C0.99 0 1.98 0 3 0 C3 1.65 3 3.3 3 5 C2.01 5 1.02 5 0 5 C0 6.65 0 8.3 0 10 C-0.33 10 -0.66 10 -1 10 C-1.125 2.25 -1.125 2.25 0 0 Z " fill="#DBCCBE" transform="translate(52,52)"/>
<path d="M0 0 C2.475 0.495 2.475 0.495 5 1 C5.33 2.65 5.66 4.3 6 6 C5.34 6 4.68 6 4 6 C4 5.34 4 4.68 4 4 C2.68 4 1.36 4 0 4 C0 2.68 0 1.36 0 0 Z " fill="#9B9287" transform="translate(35,60)"/>
<path d="M0 0 C0.99 0 1.98 0 3 0 C3.33 2.31 3.66 4.62 4 7 C2.0625 6.25 2.0625 6.25 0 5 C-0.8125 2.9375 -0.8125 2.9375 -1 1 C-0.67 0.67 -0.34 0.34 0 0 Z " fill="#906945" transform="translate(54,34)"/>
<path d="M0 0 C0.33 0.66 0.66 1.32 1 2 C1.66 2 2.32 2 3 2 C2.1875 3.9375 2.1875 3.9375 1 6 C0.01 6.33 -0.98 6.66 -2 7 C-2.125 4.625 -2.125 4.625 -2 2 C-1.34 1.34 -0.68 0.68 0 0 Z " fill="#BE7D1E" transform="translate(35,35)"/>
<path d="M0 0 C0.99 0 1.98 0 3 0 C3.0825 0.61875 3.165 1.2375 3.25 1.875 C3.81258459 4.18437567 3.81258459 4.18437567 6.0625 5.25 C6.701875 5.4975 7.34125 5.745 8 6 C5.6875 6.25 5.6875 6.25 3 6 C1.02389614 3.95575462 0 2.8823175 0 0 Z " fill="#B2ACA7" transform="translate(40,62)"/>
<path d="M0 0 C0.66 1.32 1.32 2.64 2 4 C2.66 4.33 3.32 4.66 4 5 C3.67 6.32 3.34 7.64 3 9 C2.01 9 1.02 9 0 9 C0 6.03 0 3.06 0 0 Z " fill="#B4874B" transform="translate(31,24)"/>
<path d="M0 0 C3.3 0 6.6 0 10 0 C10 0.33 10 0.66 10 1 C8.35 1.33 6.7 1.66 5 2 C5 2.33 5 2.66 5 3 C3.35 3 1.7 3 0 3 C0 2.01 0 1.02 0 0 Z " fill="#895B31" transform="translate(33,19)"/>
<path d="M0 0 C2.97 0 5.94 0 9 0 C8.01 0.66 7.02 1.32 6 2 C5.01 1.67 4.02 1.34 3 1 C3 1.66 3 2.32 3 3 C1.68 3 0.36 3 -1 3 C-0.67 2.01 -0.34 1.02 0 0 Z " fill="#B79693" transform="translate(46,16)"/>
<path d="M0 0 C1.65 0.33 3.3 0.66 5 1 C4.67 1.99 4.34 2.98 4 4 C2.35 4 0.7 4 -1 4 C-0.67 2.68 -0.34 1.36 0 0 Z " fill="#DAD5D0" transform="translate(25,15)"/>
<path d="M0 0 C2 2 2 2 2 6 C1.34 6 0.68 6 0 6 C-0.33 6.66 -0.66 7.32 -1 8 C-1.04241723 5.66705225 -1.04092937 3.33297433 -1 1 C-0.67 0.67 -0.34 0.34 0 0 Z " fill="#DFAD2E" transform="translate(50,48)"/>
<path d="M0 0 C2.475 0.99 2.475 0.99 5 2 C5 2.99 5 3.98 5 5 C3.35 4.67 1.7 4.34 0 4 C0 2.68 0 1.36 0 0 Z " fill="#B4926C" transform="translate(52,38)"/>
<path d="M0 0 C1.98 0 3.96 0 6 0 C6.33 1.32 6.66 2.64 7 4 C6.01 4 5.02 4 4 4 C4 3.34 4 2.68 4 2 C2.68 1.67 1.36 1.34 0 1 C0 0.67 0 0.34 0 0 Z " fill="#946329" transform="translate(34,22)"/>
</svg>
